<svg width="29" height="284" viewBox="0 0 29 284" fill="none" xmlns="http://www.w3.org/2000/svg">
<path d="M18.168 274.508C20.616 274.508 21.924 275.804 21.924 277.616C21.924 279.224 21.012 279.98 19.032 279.98H12.312V282.476H19.62C22.488 282.476 24.228 281.156 24.228 278.252C24.228 276.308 23.28 274.976 21.732 274.34L24 274.244V272.012H12.312V274.508H18.168ZM24.24 262.259C24.24 259.415 22.86 257.747 20.724 257.747C18.504 257.747 17.832 259.331 17.196 262.175C16.788 264.011 16.44 264.779 15.468 264.779C14.628 264.779 14.016 264.167 14.016 262.727C14.016 261.239 14.736 260.207 16.368 260.087L16.116 257.879C13.656 257.987 12.084 259.511 12.084 262.751C12.084 265.343 13.368 267.155 15.624 267.167C17.64 267.167 18.54 265.931 19.224 262.691C19.572 261.047 19.812 260.183 20.868 260.183C21.828 260.183 22.296 260.891 22.296 262.319C22.296 263.939 21.684 265.103 19.956 265.271L20.22 267.563C23.016 267.359 24.24 265.187 24.24 262.259Z" fill="white"/>
<line x1="18.5" y1="243.5" x2="18.5" y2="0.5" stroke="white" stroke-linecap="round"/>
</svg>
