<svg width="77" height="38" viewBox="0 0 77 38" fill="none" xmlns="http://www.w3.org/2000/svg">
<path d="M20.7654 25.6564C19.7929 28.1734 19.135 30.0612 18.3914 32.235C17.6477 30.0326 16.8182 27.7158 16.0174 25.6564L5.92071 0H0V37.1832H3.74692V11.3838C3.74692 8.86676 3.71832 6.60717 3.68972 4.14736C4.51919 6.63577 5.37726 8.98117 6.40695 11.5554L16.6752 37.1832H20.1075L28 18.4997C27 18.4997 27.4525 18.9982 28 18.4997C27 18.4997 26.5 18.4997 24 18.4997L20.7654 25.6564Z" fill="#222222"/>
<path d="M34.1881 37.1832V0H30.241V37.1832H34.1881Z" fill="#222222"/>
<path d="M40.5 37.1832V2.28882e-05H36.5529V37.1832H40.5Z" fill="#222222"/>
<path d="M47 37.1832V0H43.0529V37.1832H47Z" fill="#222222"/>
<path d="M56.2346 25.6564C57.2071 28.1734 57.8649 30.0612 58.6086 32.235C59.3523 30.0326 60.1818 27.7158 60.9826 25.6564L71.0793 0H77V37.1832H73.2531V11.3838C73.2531 8.86676 73.2817 6.60717 73.3103 4.14736C72.4808 6.63577 71.6227 8.98117 70.593 11.5554L60.3248 37.1832H56.8925L49 18.4997C50 18.4997 49.5475 18.9982 49 18.4997C50 18.4997 50.5 18.4997 53 18.4997L56.2346 25.6564Z" fill="#222222"/>
</svg>
